<svg id="visual" viewBox="0 0 960 300" width="960" height="300" xmlns="http://www.w3.org/2000/svg" xmlns:xlink="http://www.w3.org/1999/xlink" version="1.1"><rect x="0" y="0" width="960" height="300" fill="#202731"></rect><path d="M0 202L16 207.5C32 213 64 224 96 222.2C128 220.3 160 205.7 192 204.3C224 203 256 215 288 226.7C320 238.3 352 249.7 384 250.8C416 252 448 243 480 233.2C512 223.3 544 212.7 576 211.2C608 209.7 640 217.3 672 217.2C704 217 736 209 768 206C800 203 832 205 864 216.3C896 227.7 928 248.3 944 258.7L960 269L960 0L944 0C928 0 896 0 864 0C832 0 800 0 768 0C736 0 704 0 672 0C640 0 608 0 576 0C544 0 512 0 480 0C448 0 416 0 384 0C352 0 320 0 288 0C256 0 224 0 192 0C160 0 128 0 96 0C64 0 32 0 16 0L0 0Z" fill="#c62368"></path><path d="M0 149L16 158.2C32 167.3 64 185.7 96 189.8C128 194 160 184 192 181.8C224 179.7 256 185.3 288 191C320 196.7 352 202.3 384 195C416 187.7 448 167.3 480 166.2C512 165 544 183 576 192C608 201 640 201 672 195.8C704 190.7 736 180.3 768 171.2C800 162 832 154 864 159.3C896 164.7 928 183.3 944 192.7L960 202L960 0L944 0C928 0 896 0 864 0C832 0 800 0 768 0C736 0 704 0 672 0C640 0 608 0 576 0C544 0 512 0 480 0C448 0 416 0 384 0C352 0 320 0 288 0C256 0 224 0 192 0C160 0 128 0 96 0C64 0 32 0 16 0L0 0Z" fill="#d51e69"></path><path d="M0 168L16 165C32 162 64 156 96 157C128 158 160 166 192 158.5C224 151 256 128 288 118.8C320 109.7 352 114.3 384 120.5C416 126.7 448 134.3 480 141C512 147.7 544 153.3 576 152.8C608 152.3 640 145.7 672 137C704 128.3 736 117.7 768 120.5C800 123.3 832 139.7 864 146.3C896 153 928 150 944 148.5L960 147L960 0L944 0C928 0 896 0 864 0C832 0 800 0 768 0C736 0 704 0 672 0C640 0 608 0 576 0C544 0 512 0 480 0C448 0 416 0 384 0C352 0 320 0 288 0C256 0 224 0 192 0C160 0 128 0 96 0C64 0 32 0 16 0L0 0Z" fill="#e31769"></path><path d="M0 113L16 107.3C32 101.7 64 90.3 96 82.3C128 74.3 160 69.7 192 69.8C224 70 256 75 288 77.5C320 80 352 80 384 83.7C416 87.3 448 94.7 480 91.5C512 88.3 544 74.7 576 78.5C608 82.3 640 103.7 672 109.5C704 115.3 736 105.7 768 99C800 92.3 832 88.7 864 86.7C896 84.7 928 84.3 944 84.2L960 84L960 0L944 0C928 0 896 0 864 0C832 0 800 0 768 0C736 0 704 0 672 0C640 0 608 0 576 0C544 0 512 0 480 0C448 0 416 0 384 0C352 0 320 0 288 0C256 0 224 0 192 0C160 0 128 0 96 0C64 0 32 0 16 0L0 0Z" fill="#f10e68"></path><path d="M0 53L16 52.7C32 52.3 64 51.7 96 47.2C128 42.7 160 34.3 192 29.2C224 24 256 22 288 21.3C320 20.7 352 21.3 384 23.8C416 26.3 448 30.7 480 35.3C512 40 544 45 576 45.2C608 45.3 640 40.7 672 36.3C704 32 736 28 768 29C800 30 832 36 864 40.8C896 45.7 928 49.3 944 51.2L960 53L960 0L944 0C928 0 896 0 864 0C832 0 800 0 768 0C736 0 704 0 672 0C640 0 608 0 576 0C544 0 512 0 480 0C448 0 416 0 384 0C352 0 320 0 288 0C256 0 224 0 192 0C160 0 128 0 96 0C64 0 32 0 16 0L0 0Z" fill="#ff0066"></path></svg>